<svg width="14" height="14" viewBox="0 0 14 14" fill="none" xmlns="http://www.w3.org/2000/svg">
<g clip-path="url(#clip0_0_212)">
<path d="M5.10022 7.72383C5.10022 7.54845 4.95797 7.40637 4.78245 7.40637L3.67355 7.40637C3.49824 7.40637 3.35596 7.54845 3.35596 7.72383L3.35596 8.83258C3.35596 9.00819 3.49824 9.15032 3.67355 9.15032L4.78245 9.15032C4.95797 9.15032 5.10022 9.00819 5.10022 8.83258L5.10022 7.72383Z" fill="#E36F59"/>
<path d="M7.87217 7.72383C7.87217 7.54845 7.72989 7.40637 7.55471 7.40637L6.44565 7.40637C6.27033 7.40637 6.12805 7.54845 6.12805 7.72383L6.12805 8.83258C6.12805 9.00819 6.27033 9.15032 6.44565 9.15032L7.55471 9.15032C7.72989 9.15032 7.87217 9.00819 7.87217 8.83258L7.87217 7.72383Z" fill="#E36F59"/>
<path d="M10.6437 7.72383C10.6437 7.54845 10.5015 7.40637 10.3261 7.40637L9.21724 7.40637C9.04173 7.40637 8.89948 7.54845 8.89948 7.72383L8.89948 8.83258C8.89948 9.00819 9.04173 9.15032 9.21724 9.15032L10.3261 9.15032C10.5015 9.15032 10.6437 9.00819 10.6437 8.83258L10.6437 7.72383Z" fill="#E36F59"/>
<path d="M5.10022 10.4952C5.10022 10.3196 4.95797 10.1776 4.78245 10.1776L3.67355 10.1776C3.49824 10.1776 3.35596 10.3196 3.35596 10.4952L3.35596 11.6038C3.35596 11.7793 3.49824 11.9214 3.67355 11.9214L4.78245 11.9214C4.95797 11.9214 5.10022 11.7793 5.10022 11.6038L5.10022 10.4952Z" fill="#E36F59"/>
<path d="M7.87217 10.4952C7.87217 10.3196 7.72989 10.1776 7.55471 10.1776L6.44565 10.1776C6.27033 10.1776 6.12805 10.3196 6.12805 10.4952L6.12805 11.6038C6.12805 11.7793 6.27033 11.9214 6.44565 11.9214L7.55471 11.9214C7.72989 11.9214 7.87217 11.7793 7.87217 11.6038L7.87217 10.4952Z" fill="#E36F59"/>
<path d="M10.6437 10.4952C10.6437 10.3196 10.5015 10.1776 10.3263 10.1776L9.21724 10.1776C9.04173 10.1776 8.89948 10.3196 8.89948 10.4952L8.89948 11.6038C8.89948 11.7793 9.04173 11.9214 9.21724 11.9214L10.3263 11.9214C10.5015 11.9214 10.6437 11.7793 10.6437 11.6038L10.6437 10.4952Z" fill="#E36F59"/>
<path d="M12.626 1.55894L12.626 3.25247C12.626 4.01793 12.0051 4.63477 11.2397 4.63477L10.3652 4.63477C9.59979 4.63477 8.97058 4.01793 8.97058 3.25247L8.97058 1.55286L5.02886 1.55286L5.02886 3.25247C5.02886 4.01793 4.39969 4.63477 3.6344 4.63477L2.7597 4.63477C1.99439 4.63477 1.37345 4.01793 1.37345 3.25247L1.37345 1.55894C0.704552 1.5791 0.154907 2.13259 0.154907 2.81289L0.154907 12.7378C0.154907 13.4309 0.716683 14.0001 1.40978 14.0001L12.5897 14.0001C13.2817 14.0001 13.8445 13.4297 13.8445 12.7378L13.8445 2.8129C13.8445 2.13259 13.2949 1.5791 12.626 1.55894ZM12.2198 12.1197C12.2198 12.4193 11.977 12.6623 11.6773 12.6623L2.29822 12.6623C1.99857 12.6623 1.75572 12.4193 1.75572 12.1197L1.75572 6.99318C1.75572 6.69353 1.99855 6.45053 2.29822 6.45053L11.6773 6.45053C11.977 6.45053 12.2198 6.69353 12.2198 6.99318L12.2198 12.1197Z" fill="#E36F59"/>
<path d="M2.75743 3.72677L3.62247 3.72677C3.88503 3.72677 4.09792 3.5142 4.09792 3.25163L4.09792 0.475307C4.09792 0.212717 3.88503 5.70602e-08 3.62247 4.77144e-08L2.75743 1.69236e-08C2.49484 7.57672e-09 2.28198 0.212717 2.28198 0.475307L2.28198 3.25163C2.28198 3.5142 2.49484 3.72677 2.75743 3.72677Z" fill="#E36F59"/>
<path d="M10.3541 3.72677L11.2192 3.72677C11.4816 3.72677 11.6945 3.5142 11.6945 3.25163L11.6945 0.475307C11.6945 0.212717 11.4816 5.70541e-08 11.2192 4.77133e-08L10.3541 1.69226e-08C10.0916 7.57774e-09 9.87872 0.212717 9.87872 0.475307L9.87872 3.25163C9.87872 3.5142 10.0916 3.72677 10.3541 3.72677Z" fill="#E36F59"/>
</g>
<defs>
<clipPath id="clip0_0_212">
<rect width="14" height="14" fill="white"/>
</clipPath>
</defs>
</svg>
