<svg width="17" height="17" viewBox="0 0 17 17" fill="none" xmlns="http://www.w3.org/2000/svg">
<g clip-path="url(#clip0_0_225)">
<path d="M8.50015 6.18188C9.77902 6.18188 10.8183 7.22119 10.8183 8.50006C10.8183 9.77894 9.77902 10.8182 8.50015 10.8182C7.22127 10.8182 6.18197 9.77894 6.18197 8.50006C6.18197 7.22119 7.22131 6.18188 8.50015 6.18188Z" fill="#E36F59"/>
<path d="M8.49998 2.70459C12.3636 2.70459 15.6632 5.10775 17 8.50005C15.6632 11.8923 12.3636 14.2955 8.49998 14.2955C4.63249 14.2955 1.33679 11.8923 -3.64459e-05 8.50005C1.33679 5.10775 4.63249 2.70459 8.49998 2.70459ZM8.49998 12.3637C10.6327 12.3637 12.3636 10.6327 12.3636 8.50001C12.3636 6.36728 10.6327 4.6364 8.49998 4.6364C6.36725 4.6364 4.63633 6.36732 4.63633 8.50005C4.63633 10.6328 6.36725 12.3637 8.49998 12.3637Z" fill="#E36F59"/>
</g>
<defs>
<clipPath id="clip0_0_225">
<rect width="17" height="17" fill="white" transform="matrix(-1 -3.55949e-08 -3.55949e-08 1 17 0)"/>
</clipPath>
</defs>
</svg>
