<svg width="13" height="13" viewBox="0 0 13 13" fill="none" xmlns="http://www.w3.org/2000/svg">
<g clip-path="url(#clip0_2_140)">
<path d="M12.7816 5.81152L6.94893 0.496818C6.69292 0.263504 6.30686 0.263529 6.05095 0.496792L0.218248 5.81155C0.0131686 5.99842 -0.0545735 6.28635 0.0456177 6.54506C0.145834 6.80376 0.389838 6.97091 0.667281 6.97091H1.59886V12.2958C1.59886 12.507 1.77004 12.6781 1.98117 12.6781H5.1782C5.38932 12.6781 5.5605 12.507 5.5605 12.2958V9.06271H7.43945V12.2959C7.43945 12.507 7.61064 12.6782 7.82176 12.6782H11.0186C11.2298 12.6782 11.4009 12.507 11.4009 12.2959V6.97091H12.3327C12.6101 6.97091 12.8541 6.80373 12.9544 6.54506C13.0544 6.28633 12.9867 5.99842 12.7816 5.81152Z" fill="#E36F59"/>
<path d="M11.3012 1.08496H8.73376L11.6835 3.76712V1.46724C11.6835 1.25612 11.5124 1.08496 11.3012 1.08496Z" fill="#E36F59"/>
</g>
<defs>
<clipPath id="clip0_2_140">
<rect width="13" height="13" fill="white"/>
</clipPath>
</defs>
</svg>
