<svg width="16" height="16" viewBox="0 0 16 16" fill="none" xmlns="http://www.w3.org/2000/svg">
<g clip-path="url(#clip0_0_138)">
<path d="M15.9937 16C14.8844 16 13.7937 16 12.6844 16C12.6844 15.9313 12.6844 15.8719 12.6844 15.8093C12.6844 14.0118 12.6875 12.2142 12.6781 10.4166C12.675 10.0446 12.6375 9.6663 12.5656 9.30054C12.3625 8.27514 11.6906 7.88748 10.6969 7.98752C9.75312 8.08444 9.22499 8.59714 9.06874 9.57252C9.00624 9.96642 8.97812 10.3697 8.97499 10.7699C8.96562 12.4486 8.97187 14.1243 8.97187 15.8031C8.97187 15.8656 8.97187 15.925 8.97187 15.9969C7.86562 15.9969 6.76874 15.9969 5.66562 15.9969C5.66562 12.4393 5.66562 8.891 5.66562 5.32711C6.71874 5.32711 7.76562 5.32711 8.83749 5.32711C8.83749 5.80229 8.83749 6.28061 8.83749 6.80581C8.88749 6.74954 8.90937 6.73078 8.92499 6.7089C9.48437 5.78041 10.3281 5.26771 11.375 5.10515C12.2406 4.97072 13.1 5.04262 13.9219 5.38025C14.8656 5.76478 15.4031 6.50569 15.6906 7.45606C15.9062 8.16572 15.9875 8.89413 15.9937 9.62879C16.0062 11.7234 16 13.8179 16.0031 15.9125C16 15.9375 15.9969 15.9625 15.9937 16Z" fill="white"/>
<path d="M0.271881 15.9969C0.271881 12.4361 0.271881 8.88473 0.271881 5.32709C1.37188 5.32709 2.46251 5.32709 3.56876 5.32709C3.56876 8.87847 3.56876 12.433 3.56876 15.9969C2.47501 15.9969 1.37813 15.9969 0.271881 15.9969Z" fill="white"/>
<path d="M1.92188 3.86402C0.86875 3.86402 0 2.98555 0 1.92263C0 0.862845 0.86875 -0.00311778 1.93125 8.43798e-06C2.98438 0.00313466 3.84375 0.869098 3.84375 1.92576C3.84375 2.98555 2.97187 3.86402 1.92188 3.86402Z" fill="white"/>
</g>
<defs>
<clipPath id="clip0_0_138">
<rect width="16" height="16" fill="white"/>
</clipPath>
</defs>
</svg>
