<svg width="45" height="50" viewBox="0 0 45 50" fill="none" xmlns="http://www.w3.org/2000/svg">
<g clip-path="url(#clip0_0_250)">
<path d="M43.8663 37.5C44.2149 36.8961 44.4315 36.2157 44.4315 35.6047V14.3953C44.4315 13.7843 44.2152 13.104 43.8664 12.5001L22.2158 25L43.8663 37.5Z" fill="#659AD2"/>
<path d="M24.1397 49.5416L42.5076 38.937C43.0367 38.6315 43.5176 38.104 43.8663 37.4999L22.2158 25L0.565277 37.5001C0.913905 38.104 1.39496 38.6316 1.92392 38.937L20.2919 49.5416C21.3499 50.1526 23.0816 50.1526 24.1397 49.5416Z" fill="#659AD2"/>
<path d="M43.8664 12.4999C43.5176 11.8959 43.0366 11.3684 42.5076 11.0629L24.1397 0.458255C23.0816 -0.152752 21.3499 -0.152752 20.2919 0.458255L1.92391 11.0629C0.865689 11.6737 0 13.1734 0 14.3952V35.6046C0 36.2156 0.216495 36.896 0.565268 37.4999L22.2158 25L43.8664 12.4999Z" fill="#659AD2"/>
<path d="M22.2158 39.8105C14.0492 39.8105 7.40524 33.1665 7.40524 25C7.40524 16.8334 14.0492 10.1895 22.2158 10.1895C27.4854 10.1895 32.4 13.0252 35.0415 17.5901L28.6319 21.2991C27.3098 19.0142 24.8512 17.5947 22.2158 17.5947C18.1324 17.5947 14.8105 20.9166 14.8105 25C14.8105 29.0832 18.1324 32.4052 22.2158 32.4052C24.8514 32.4052 27.3101 30.9857 28.6323 28.7004L35.042 32.4093C32.4005 36.9746 27.4857 39.8105 22.2158 39.8105Z" fill="white"/>
<path d="M37.0263 24.1772H35.3806V22.5316H33.7352V24.1772H32.0894V25.8227H33.7352V27.4685H35.3806V25.8227H37.0263V24.1772Z" fill="white"/>
<path d="M43.1973 24.1772H41.5516V22.5316H39.9062V24.1772H38.2605V25.8227H39.9062V27.4685H41.5516V25.8227H43.1973V24.1772Z" fill="white"/>
</g>
<defs>
<clipPath id="clip0_0_250">
<rect width="44.4315" height="50" fill="white"/>
</clipPath>
</defs>
</svg>
