<svg width="16" height="16" viewBox="0 0 16 16" fill="none" xmlns="http://www.w3.org/2000/svg">
<path d="M10.606 8.08949L16 11.8095V4.2124L10.606 8.08949Z" fill="#C4CACF"/>
<path d="M0 4.2124V11.8095L5.394 8.08949L0 4.2124Z" fill="#C4CACF"/>
<path d="M14.9998 2H0.999785C0.500785 2 0.104785 2.40582 0.0297852 2.92836L7.99978 8.65673L15.9698 2.92836C15.8948 2.40582 15.4988 2 14.9998 2Z" fill="#C4CACF"/>
<path d="M9.68974 8.7484L8.27474 9.76513C8.19074 9.82513 8.09574 9.85459 7.99974 9.85459C7.90374 9.85459 7.80874 9.82513 7.72474 9.76513L6.30974 8.74731L0.0317383 13.0793C0.108738 13.5975 0.502738 14 0.999738 14H14.9997C15.4967 14 15.8907 13.5975 15.9677 13.0793L9.68974 8.7484Z" fill="#C4CACF"/>
</svg>
