<svg width="97" height="97" viewBox="0 0 97 97" fill="none" xmlns="http://www.w3.org/2000/svg">
<g clip-path="url(#clip0_0_170)">
<path d="M31.0456 44.7078C28.6565 44.02 26.2674 43.6709 23.9435 43.6709C20.3548 43.6709 17.3604 44.4911 15.0385 45.4953C17.2769 37.3004 22.6543 23.1603 33.3664 21.5679C34.3585 21.4203 35.1715 20.703 35.4421 19.7374L37.7833 11.3634C37.9807 10.6552 37.8637 9.89719 37.4598 9.28262C37.0558 8.66805 36.4067 8.258 35.6792 8.15828C34.8886 8.05043 34.0828 7.99548 33.284 7.99548C20.4261 7.99548 7.69221 21.4163 2.31887 40.6327C-0.835337 51.9066 -1.76023 68.856 6.00929 79.5245C10.357 85.4941 16.7 88.682 24.8623 89.0004C24.8959 89.0014 24.9284 89.0025 24.962 89.0025C35.0331 89.0025 43.9636 82.2198 46.6802 72.5099C48.3031 66.705 47.5695 60.6174 44.6127 55.364C41.6874 50.1697 36.8696 46.3836 31.0456 44.7078Z" fill="#E36F59"/>
<path d="M94.0886 55.365C91.1633 50.1697 86.3455 46.3836 80.5214 44.7078C78.1324 44.02 75.7433 43.671 73.4204 43.671C69.8317 43.671 66.8363 44.4911 64.5144 45.4953C66.7528 37.3004 72.1302 23.1603 82.8433 21.5679C83.8354 21.4203 84.6474 20.703 84.919 19.7374L87.2603 11.3634C87.4576 10.6552 87.3406 9.89719 86.9367 9.28262C86.5338 8.66805 85.8846 8.258 85.1561 8.15828C84.3665 8.05043 83.5607 7.99548 82.7609 7.99548C69.903 7.99548 57.1691 21.4163 51.7948 40.6327C48.6416 51.9066 47.7167 68.856 55.4872 79.5265C59.8339 85.4952 66.1779 88.684 74.3392 89.0015C74.3728 89.0025 74.4053 89.0035 74.4399 89.0035C84.51 89.0035 93.4415 82.2209 96.1582 72.5109C97.779 66.7061 97.0444 60.6174 94.0886 55.365Z" fill="#E36F59"/>
</g>
<defs>
<clipPath id="clip0_0_170">
<rect width="97" height="97" fill="white"/>
</clipPath>
</defs>
</svg>
