<svg width="45" height="50" viewBox="0 0 45 50" fill="none" xmlns="http://www.w3.org/2000/svg">
<path d="M44.4577 14.6842C44.4577 13.8488 44.2797 13.0955 43.9099 12.4654C43.5538 11.8354 43.0196 11.315 42.3075 10.9041C36.3907 7.49374 30.4603 4.08343 24.5435 0.673067C22.9411 -0.244587 21.4071 -0.217183 19.8184 0.714144C17.4626 2.09749 5.65651 8.86336 2.15031 10.9041C0.698481 11.7396 0 13.027 0 14.698V35.2969C0 36.1187 0.178039 36.8446 0.520443 37.4747C0.876578 38.1184 1.42442 38.6662 2.15031 39.0908C5.67024 41.1315 17.4626 47.8837 19.8184 49.2808C21.4071 50.2119 22.9548 50.253 24.5435 49.3218C30.4603 45.8978 36.3907 42.5012 42.3075 39.0908C43.047 38.6662 43.5812 38.1321 43.9373 37.4747C44.2797 36.8446 44.4577 36.1187 44.4577 35.2969V14.6842Z" fill="#9770D6"/>
<path d="M28.625 28.5858C27.365 30.8183 24.9682 32.3386 22.2152 32.3386C19.476 32.3386 17.0929 30.8457 15.8328 28.6269C15.2165 27.545 14.8603 26.3123 14.8603 24.9838C14.8603 20.916 18.1474 17.6289 22.2152 17.6289C24.927 17.6289 27.2965 19.1081 28.5702 21.2995L34.9937 17.6015C32.4326 13.1914 27.6663 10.2193 22.2015 10.2193C14.0386 10.2193 7.43707 16.8345 7.43707 24.9838C7.43707 27.6545 8.14923 30.1746 9.39561 32.3386C11.9431 36.7625 16.7367 39.7482 22.2152 39.7482C27.7074 39.7482 32.501 36.7488 35.0485 32.2975L28.625 28.5858ZM36.7468 21.4912H35.2813V28.5722H36.7468V21.4912ZM39.9928 21.4912H38.5273V28.5722H39.9928V21.4912Z" fill="white"/>
<path d="M41.1843 22.6828H34.1035V24.1483H41.1843V22.6828ZM41.1843 25.9151H34.1035V27.3806H41.1843V25.9151Z" fill="white"/>
</svg>
